<svg width="24" height="24" viewBox="0 0 24 24" fill="none" xmlns="http://www.w3.org/2000/svg">
<path d="M8.65758 22.2352V18.6687C8.65804 18.4512 8.70135 18.2359 8.78505 18.0351C8.86874 17.8344 8.99118 17.6521 9.14535 17.4987C9.29953 17.3452 9.48242 17.2237 9.68359 17.141C9.88476 17.0583 10.1002 17.016 10.3177 17.0167H13.6707C14.1108 17.0163 14.5331 17.1899 14.8456 17.4997C14.9997 17.6524 15.122 17.8341 15.2055 18.0343C15.289 18.2346 15.3321 18.4494 15.3321 18.6663V22.234C15.3308 22.4217 15.3668 22.6078 15.4381 22.7815C15.5094 22.9551 15.6146 23.1129 15.7474 23.2455C15.8809 23.3788 16.0394 23.4845 16.2137 23.5566C16.3881 23.6287 16.5749 23.6657 16.7636 23.6655H19.0514C20.1183 23.6685 21.143 23.2491 21.9016 22.4988C22.2754 22.1294 22.5723 21.6896 22.7751 21.2048C22.9779 20.72 23.0827 20.1998 23.0834 19.6743V9.5115C23.082 9.08756 22.9872 8.66915 22.8057 8.28603C22.6242 7.9029 22.3605 7.56448 22.0334 7.29483L14.2564 1.122C13.5986 0.597992 12.7788 0.319604 11.9379 0.334722C11.0971 0.34984 10.2878 0.657518 9.64925 1.20483L2.04491 7.2925C1.70321 7.55475 1.42453 7.89015 1.22932 8.27412C1.0341 8.65809 0.927302 9.08088 0.916748 9.5115L0.916748 19.6615C0.91843 20.1892 1.02406 20.7115 1.22762 21.1984C1.43117 21.6853 1.72865 22.1274 2.10307 22.4993C2.4775 22.8712 2.92152 23.1658 3.40979 23.3661C3.89805 23.5664 4.421 23.6685 4.94875 23.6667H7.18408C7.56337 23.6682 7.92788 23.5197 8.19804 23.2535C8.4682 22.9872 8.62208 22.6249 8.62608 22.2457L8.65758 22.2352Z" fill="#3295AC"/>
</svg>
