<svg width="24" height="26" viewBox="0 0 24 26" fill="none" xmlns="http://www.w3.org/2000/svg">
<path d="M8.68325 23.2328V19.65C8.6854 19.2106 8.86131 18.7899 9.17258 18.4797C9.48384 18.1695 9.90517 17.9951 10.3446 17.9945H13.7116C13.9301 17.9934 14.1466 18.0354 14.3489 18.118C14.5511 18.2006 14.7351 18.3223 14.8904 18.476C15.0456 18.6297 15.1691 18.8125 15.2537 19.014C15.3383 19.2154 15.3823 19.4315 15.3834 19.65V19.65V23.2387C15.3836 23.6125 15.5303 23.9714 15.7921 24.2383C16.0538 24.5053 16.4097 24.659 16.7834 24.6667H19.0281C19.5578 24.6697 20.0829 24.5684 20.5734 24.3685C21.0639 24.1685 21.5102 23.8739 21.8868 23.5014C22.2634 23.1289 22.5629 22.6859 22.7683 22.1976C22.9736 21.7093 23.0807 21.1854 23.0834 20.6557V20.6557V10.4777C23.0761 10.0474 22.9714 9.62432 22.777 9.24037C22.5826 8.85642 22.3036 8.52156 21.9611 8.261L14.2844 2.1325C13.6293 1.61469 12.8188 1.33301 11.9837 1.33301C11.1487 1.33301 10.3381 1.61469 9.68308 2.1325L2.03908 8.26684C1.69472 8.52674 1.4145 8.8621 1.21995 9.24717C1.02539 9.63223 0.921669 10.0568 0.916748 10.4882L0.916748 20.6545C0.919346 21.184 1.02621 21.7078 1.23124 22.196C1.43627 22.6842 1.73545 23.1272 2.1117 23.4998C2.48795 23.8723 2.9339 24.1671 3.42408 24.3674C3.91427 24.5676 4.43909 24.6693 4.96858 24.6667H7.21675C7.40596 24.6676 7.5935 24.6312 7.76867 24.5597C7.94383 24.4881 8.10318 24.3828 8.23763 24.2496C8.37207 24.1165 8.47897 23.9581 8.55223 23.7837C8.62549 23.6092 8.66366 23.422 8.66458 23.2328V23.2328" stroke="#7F858A" stroke-width="1.5" stroke-miterlimit="10" stroke-linecap="round" stroke-linejoin="round"/>
</svg>
